Coordinates
version=1
nRows=17
nColumns=24
inDegrees=yes

Units are S.I. units (second, meters, Newtons, ...)
Angles are in degrees.

endheader
time	pelvis_tilt	pelvis_list	pelvis_rotation	pelvis_tx	pelvis_ty	pelvis_tz	hip_flexion_r	hip_adduction_r	hip_rotation_r	knee_angle_r	ankle_angle_r	subtalar_angle_r	mtp_angle_r	hip_flexion_l	hip_adduction_l	hip_rotation_l	knee_angle_l	ankle_angle_l	subtalar_angle_l	mtp_angle_l	lumbar_extension	lumbar_bending	lumbar_rotation
      6.06000000	      5.13675092	      5.63060857	     -1.65971294	      1.24167709	      1.04626966	     -0.17389788	     16.41418344	     -4.92256315	     -1.68234109	     -3.71822726	      6.77673554	     -9.84506352	      0.00000000	    -21.28081618	     10.25091038	      8.65207932	     -0.41278914	      7.34072465	    -23.75686729	      0.00000000	    -19.56793958	     -4.59460193	     -9.44031977
      6.07000000	      5.28336864	      5.41655487	     -1.63958719	      1.25427308	      1.04617789	     -0.17199292	     16.16072993	     -4.56485132	     -2.66658504	     -3.81258434	      6.95048922	    -10.28851212	      0.00000000	    -21.91836991	      9.90344725	      8.60563060	     -0.86659382	      7.02307937	    -23.44571463	      0.00000000	    -19.69179360	     -4.38507093	     -9.60116688
      6.08000000	      5.48037676	      5.21910835	     -1.65438708	      1.26712625	      1.04620852	     -0.16997246	     15.91728685	     -4.22430588	     -4.05296279	     -4.34478882	      7.36738565	    -10.05803398	      0.00000000	    -22.53338626	      9.58502755	      8.35048572	     -1.46344421	      6.72762795	    -22.92191484	      0.00000000	    -19.83821234	     -4.21441078	     -9.70677057
      6.09000000	      5.66504895	      5.04891619	     -1.65712370	      1.28032337	      1.04624944	     -0.16788125	     15.65919707	     -3.92525009	     -5.46141571	     -5.13795163	      7.74790724	     -9.66593365	      0.00000000	    -23.08428763	      9.28520437	      8.03513893	     -2.17594538	      6.44698438	    -22.25724590	      0.00000000	    -19.91245958	     -4.07881626	     -9.80715268
      6.10000000	      5.85624013	      4.91912588	     -1.63365370	      1.29387639	      1.04631811	     -0.16572612	     15.31192380	     -3.69118068	     -6.75368018	     -6.04102347	      8.01472791	     -9.24084677	      0.00000000	    -23.58533129	      9.00944638	      7.62664734	     -3.01145465	      6.15170649	    -21.42517614	      0.00000000	    -19.93589107	     -3.99211983	     -9.91977176
      6.11000000	      5.98734033	      4.83862916	     -1.58711648	      1.30775942	      1.04635282	     -0.16349808	     14.93899918	     -3.53383666	     -7.94700605	     -6.95943503	      8.06785988	     -8.80347271	      0.00000000	    -23.93548883	      8.76525845	      7.01282717	     -4.01276466	      5.93511684	    -20.33945882	      0.00000000	    -19.83374915	     -3.96581934	    -10.03370101
      6.12000000	      6.05668895	      4.78127188	     -1.49163196	      1.32193993	      1.04639979	     -0.16120478	     14.49347087	     -3.41163355	     -8.85369534	     -7.73335336	      7.77691950	     -8.71235974	      0.00000000	    -24.12332613	      8.50854286	      6.22054740	     -5.19211712	      5.72348294	    -19.03515151	      0.00000000	    -19.60949845	     -3.97118297	    -10.15660267
      6.13000000	      6.07661238	      4.70854935	     -1.34602810	      1.33635157	      1.04652800	     -0.15885229	     13.96340682	     -3.27200612	     -9.45357383	     -8.29161302	      7.09821535	     -9.11220037	      0.00000000	    -24.15187861	      8.19370979	      5.26797531	     -6.55801306	      5.46775219	    -17.56874976	      0.00000000	    -19.29017671	     -3.96075745	    -10.27324705
      6.14000000	      6.05208478	      4.58587794	     -1.16608792	      1.35090883	      1.04680017	     -0.15644204	     13.37676250	     -3.07017281	     -9.76465655	     -8.64418271	      6.09311389	     -9.99089853	      0.00000000	    -24.00922172	      7.78604074	      4.13519032	     -8.12788217	      5.11630948	    -15.97151192	      0.00000000	    -18.89531097	     -3.90118411	    -10.35609352
      6.15000000	      6.00030562	      4.38579321	     -0.97708570	      1.36552954	      1.04726514	     -0.15398650	     12.76015425	     -2.77272360	     -9.80907978	     -8.85380348	      4.90394098	    -11.26134682	      0.00000000	    -23.69903234	      7.26122170	      2.80927185	     -9.91626310	      4.60105723	    -14.30022297	      0.00000000	    -18.45065601	     -3.75756882	    -10.38016639
      6.16000000	      5.93924616	      4.10228107	     -0.83364589	      1.38012791	      1.04793869	     -0.15144992	     12.15249423	     -2.36628905	     -9.59706943	     -9.02922459	      3.71515879	    -12.75048187	      0.00000000	    -23.24058336	      6.62905028	      1.32163388	    -11.91591145	      3.81251647	    -12.65850801	      0.00000000	    -17.99212479	     -3.53879947	    -10.28715216
      6.17000000	      5.89407932	      3.75220391	     -0.76322736	      1.39463916	      1.04882338	     -0.14884633	     11.57336177	     -1.87417743	     -9.22089611	     -9.27739779	      2.68807110	    -14.26074561	      0.00000000	    -22.67260503	      5.91745985	     -0.22610713	    -14.10177140	      2.63329941	    -11.19651262	      0.00000000	    -17.55670974	     -3.26268516	    -10.06100377
      6.18000000	      5.84302796	      3.32267995	     -0.80006770	      1.40904736	      1.04983910	     -0.14615463	     11.06410397	     -1.27985739	     -8.72720376	     -9.66194543	      2.11585453	    -15.48773146	      0.00000000	    -21.98265162	      5.13027335	     -1.78087761	    -16.45522329	      0.99409483	    -10.06351105	      0.00000000	    -17.11921198	     -2.91331434	     -9.70488574
      6.19000000	      5.78530679	      2.85963435	     -0.96480987	      1.42330360	      1.05093341	     -0.14336863	     10.62446715	     -0.63429429	     -8.19226213	    -10.18619377	      2.04141090	    -16.30753738	      0.00000000	    -21.18931316	      4.32990917	     -3.24899384	    -18.93120477	     -1.10479932	     -9.30466441	      0.00000000	    -16.70054995	     -2.54409370	     -9.20171336
      6.20000000	      5.75919661	      2.37977827	     -1.23948718	      1.43739211	      1.05210299	     -0.14050761	     10.17700085	      0.03423198	     -7.73020502	    -10.78565184	      2.52007546	    -16.57376561	      0.00000000	    -20.33923713	      3.53929148	     -4.53695993	    -21.50907144	     -3.58043502	     -8.97761140	      0.00000000	    -16.34857586	     -2.16857142	     -8.58017790
      6.21000000	      5.68689862	      1.93510190	     -1.59961395	      1.45123575	      1.05321210	     -0.13757260	      9.76822005	      0.68266405	     -7.22063915	    -11.37239960	      3.15106494	    -16.70894754	      0.00000000	    -19.32136214	      2.79709414	     -5.64690846	    -24.22253572	     -6.14924931	     -8.78768799	      0.00000000	    -15.99711537	     -1.84331539	     -7.88332449
      6.22000000	      5.50070387	      1.58507929	     -1.95922699	      1.46479794	      1.05415467	     -0.13468157	      9.43640720	      1.23386143	     -6.74120461	    -11.87252603	      3.95364790	    -16.66327093	      0.00000000	    -18.05683926	      2.17307966	     -6.35274366	    -27.05079224	     -8.73228277	     -8.98212995	      0.00000000	    -15.57500201	     -1.61592201	     -7.23119021
